/* XPM */
static char *dargui16[]={
"16 16 133 2",
"Qt c None",
"#I c #2f3236",
"#9 c #475f67",
".d c #9dade5",
"#B c #6b75a3",
".l c #a2b7fc",
".e c #5e6692",
"#8 c #22211e",
".F c #192329",
".C c #1c262a",
"ac c #232e2e",
".# c #727caf",
"#k c #5e6188",
"a. c #30352b",
".t c #5d6085",
".U c #36341f",
"#C c #3a415b",
"#J c #464221",
".c c #9dabe2",
".D c #56522a",
".E c #57522b",
"#u c #757da4",
".s c #b2c2fb",
"#7 c #5a4f19",
"#Q c #524710",
"#1 c #524711",
"#H c #534a13",
"#j c #534b16",
".9 c #564e19",
"#2 c #83711a",
"a# c #7d7022",
".a c #a5aed5",
"ab c #534a1a",
".G c #9094b5",
".b c #acb7e0",
"#. c #9297b6",
"#K c #897820",
".f c #a5aac7",
".B c #becdfa",
".m c #8a92ba",
".T c #5f541f",
".k c #c4d0f6",
".K c #9da9d5",
".V c #9198bd",
"#R c #bc9f17",
"#W c #bea116",
"#6 c #605414",
"aa c #736822",
".S c #807020",
"#v c #b3bbd9",
".Y c #76766a",
"#3 c #ad951f",
"#L c #ae951d",
".2 c #171e19",
".0 c #1b140e",
".1 c #201e16",
"#h c #2f3e25",
"#t c #2f511f",
".3 c #30311c",
"#i c #30531f",
"#s c #394b2a",
"#P c #3f3e2e",
"#g c #433105",
".Z c #45454d",
"#O c #49493e",
"#y c #635c44",
".4 c #655a20",
"#A c #6a685b",
"#G c #6c6a5c",
"#r c #6e5306",
"#p c #6f5c11",
"#N c #6f6534",
".6 c #716110",
"#z c #74757d",
".N c #767563",
"#E c #7a7762",
"#o c #7b6917",
".5 c #7d6b14",
"#5 c #7e6a0e",
".7 c #86700d",
"#f c #887214",
".8 c #89730b",
"#F c #898b93",
".M c #8e95a5",
"#Y c #947b10",
"#w c #94a0c0",
".O c #9f8d33",
".u c #a6b5e8",
"#S c #a78f1e",
"#V c #a7901f",
".v c #a7baf3",
"#Z c #a88d15",
"#n c #a8b2c8",
".H c #a8bbf3",
"#T c #ad9319",
"#0 c #af951b",
"#e c #b79a19",
".J c #b7c1e5",
".I c #b9c8f5",
".X c #bdc3d2",
".W c #bdcbf5",
"#b c #bec3ca",
".i c #c0cdf6",
".R c #caac1f",
".n c #cbd6f8",
".P c #d1b11d",
".q c #d2ddf8",
".L c #d3dcf9",
"#X c #d5b318",
".w c #d8e0f8",
".j c #d9e1f9",
".x c #dae0f5",
".A c #dae2f9",
"#M c #dcb91a",
"#l c #dee1ec",
"#4 c #dfbc1c",
"#q c #e1be1e",
"#d c #e2be1b",
".g c #e4e7f1",
".h c #e5eafb",
"#D c #e6c119",
"#c c #e6c219",
"#U c #e7c31a",
".y c #e8eefb",
".p c #e8effb",
".Q c #e9c41a",
"## c #e9edfb",
"#x c #eac51a",
".z c #f3f7fc",
"#m c #f4f6fc",
".o c #f5f7fd",
".r c #f5f8fd",
"#a c #f8fafd",
"QtQtQt.#.a.b.c.dQtQtQtQtQtQtQtQt",
"Qt.e.f.g.h.i.j.k.lQtQtQtQtQtQtQt",
"Qt.m.n.o.p.q.o.r.sQtQtQtQtQtQtQt",
".t.u.v.w.x.y.z.A.B.C.D.E.FQtQtQt",
".G.H.I.J.K.L.M.N.O.P.Q.Q.R.S.T.U",
".V.W.A.X.Y.Z.0.1.2.3.4.5.6.7.8.9",
"#.###a#b#c#d#e#f#g#h#i.8.8.8.8#j",
"#k#l#m#n#c#o#p#q#r#s#t.8.8.8.8#j",
"Qt#u#v#w#c#x#x#x#y#z#A.8.8.8.8#j",
"QtQt#B#C#D#x#x#x#E#F#G.8.8.8.8#H",
"QtQtQt#I#J#K#L#M#N#O#P.8.8.8.8#Q",
"QtQtQtQtQtQt#R#S#T#U#V.8.8.8.8#Q",
"QtQtQtQtQtQt#W#X#Y#Z#0.8.8.8.8#Q",
"QtQtQtQtQtQt#W#x#x#x#0.8.8.8.8#1",
"QtQtQtQtQtQt#2#3#4#x#0.8#5#6#7#8",
"QtQtQtQtQtQtQt#9a.a#aaabacQtQtQt"};
