/* XPM */
static char *dargui32[]={
"32 32 378 2",
"Qt c None",
"cP c #080b0f",
"dP c #25414b",
"d3 c #32515c",
"#M c #4d4f78",
".l c #606b9d",
".k c #8b9ee1",
"## c #9cb2fc",
"dE c #04070b",
"c1 c #161f22",
"ac c #22333f",
"dO c #364f5b",
"bI c #494b75",
".L c #515785",
"cD c #5e699b",
".b c #7d8ccd",
".K c #9ab1fc",
"#L c #1a2d34",
"#E c #203039",
".x c #555d8c",
".# c #7683c0",
".w c #8ea5f0",
"cI c #030301",
"dZ c #13212a",
"dY c #1a323c",
"c. c #494f7c",
".c c #656fa4",
".a c #7785c3",
"#o c #99b0fc",
"ab c #141517",
"ad c #484a74",
"#a c #484d7a",
"ck c #505684",
"cE c #656fa4",
"dQ c #0b161e",
"d2 c #0f151c",
"#K c #11161c",
"#F c #12191b",
"dD c #1c1b18",
"bo c #474973",
"dN c #0f1618",
"dF c #161a19",
"ak c #5a6496",
"c2 c #1f292e",
"aA c #474973",
"dy c #51460e",
"db c #68590e",
"al c #8aa0e8",
".j c #8c9ee2",
"#D c #99b0fc",
"cQ c #1d2525",
"d0 c #1e2a2b",
"aa c #2b3029",
"dX c #222824",
"#J c #3d3e2c",
"#G c #3d402f",
".d c #7680b3",
".Y c #a0b5fb",
"dR c #41422f",
"dC c #51461a",
"cF c #374159",
".m c #6771a2",
"d1 c #222a28",
"a# c #615827",
"bW c #63668c",
"#p c #646689",
".Z c #646992",
"cw c #6b729f",
"c3 c #4b4318",
"dG c #504d2a",
"cR c #60541b",
"#H c #685e23",
"#I c #695f27",
".v c #a6b7f1",
"dM c #3b3a20",
"aI c #7c86b0",
".y c #9399b9",
".i c #a6b3e2",
".J c #b9c9f8",
"dW c #4b441a",
"dS c #6e6322",
".M c #8187aa",
"cl c #888fb3",
"aJ c #9dabd3",
"aN c #0a0a0a",
"bb c #0f0404",
"bc c #110505",
"dr c #110e09",
"aR c #111214",
"bB c #120703",
"bh c #132715",
"bA c #140e09",
"aO c #141518",
"bi c #14261d",
"bg c #161d14",
"bj c #19181e",
"bE c #1c2d21",
"cj c #1c5b26",
"bF c #1d6226",
"ba c #1e180f",
"aM c #1e2024",
"bf c #1f2515",
"ci c #203424",
"bU c #213728",
"bV c #217628",
"aP c #222427",
"b9 c #223828",
"dq c #231703",
"aQ c #232629",
"bk c #24282b",
"cg c #251a04",
"bC c #271e04",
"ao c #2a2c2e",
"be c #2e1e06",
"bD c #30371d",
"aS c #312c17",
"bd c #352307",
"d. c #35372f",
"cY c #36393c",
"az c #373319",
"d# c #373b3c",
"bl c #3d381c",
"cr c #3e3d3c",
"bz c #3f3413",
"bG c #413a18",
"cX c #44474c",
"cZ c #46401d",
"da c #4a4523",
"b# c #4b4115",
"b2 c #4d4724",
"cC c #4f4926",
"cN c #4f4a26",
"cG c #4f4a27",
"cv c #504926",
"bT c #515f2f",
"b8 c #51602f",
"c0 c #524710",
"dx c #524812",
"cs c #525459",
"cO c #534912",
"cH c #534b15",
"bH c #534b16",
"bn c #544c17",
"c9 c #544d20",
"cf c #55420a",
"aY c #554b19",
"b3 c #564c15",
"ap c #585028",
"a2 c #58511b",
"cW c #585a60",
"cq c #5b4613",
"dp c #5b4b0b",
"bR c #5d370b",
"ay c #5e5016",
"aZ c #5f5313",
"dL c #615415",
"aL c #62697a",
"dB c #64540e",
"b7 c #653d0a",
"c7 c #65560c",
"aT c #665a21",
"aX c #685b1c",
"cU c #6a602e",
"cA c #6b6230",
"ct c #6b6e74",
"an c #6c7380",
"by c #6d5c15",
"di c #6d6121",
"cK c #6e6432",
"#1 c #6e768b",
"dj c #6f621e",
"cV c #73767d",
"dn c #74651b",
"dv c #74651c",
"dw c #74651d",
"dt c #74661c",
"cz c #747e93",
"cp c #74829a",
"dV c #756413",
"cc c #75829a",
"#2 c #767660",
"b1 c #768295",
"bS c #786a02",
"b. c #786c21",
"a9 c #787e8b",
"#3 c #7a6e2c",
"c8 c #7b6919",
"dA c #7b6a11",
"a. c #7b6d27",
"a0 c #7d6a13",
"aq c #80701f",
"dH c #807120",
"aW c #816f1f",
"cu c #81858d",
"df c #826f10",
"bP c #838b97",
"bm c #85710e",
"dK c #86710e",
"aK c #8792aa",
"aw c #887519",
"c4 c #887726",
"cM c #888b93",
"ce c #897010",
"a1 c #89730b",
"b4 c #897619",
"cL c #898b93",
"cB c #8a8b94",
"dk c #8b791c",
"bu c #8c9298",
"aU c #8e7a1d",
"cS c #8f7c1e",
"de c #907c1e",
"#N c #9294b1",
"#0 c #929fbb",
"ax c #958124",
"do c #978014",
"av c #97811c",
"cx c #98a2c9",
"bJ c #999cb9",
"c# c #9ca1be",
".e c #9da7cf",
"bx c #9e861c",
".1 c #9eb3f3",
"#4 c #a08a1d",
"#c c #a0b4f2",
"#O c #a3b5f1",
"#9 c #a48d1d",
"#b c #a4abcb",
"aV c #a68e1c",
"dT c #a78f1e",
"#P c #a7bbf3",
"#d c #a7bbf4",
"af c #a7bcf3",
"ae c #a8b0d1",
"#T c #abb6df",
"cy c #aeb9e1",
"#Q c #aec1f4",
"aj c #afb6d5",
"#r c #afc1f4",
"ag c #b0c2f5",
"ar c #b19720",
"bp c #b2b8d6",
".n c #b2b9d4",
"#U c #b2b9d8",
"#V c #b2bde7",
".h c #b2bee6",
"aC c #b2c3f4",
"c5 c #b4991b",
"dd c #b59b22",
"aB c #b5bfe2",
".s c #b5c5f4",
".f c #b6bee0",
"#q c #b7c6f4",
".0 c #b8c4ee",
"#s c #b9c7f4",
"#R c #b9c7f5",
"b5 c #ba9f20",
"a3 c #bac2e3",
".g c #bac4e5",
"aH c #bbc0d6",
"ah c #bbc9f5",
"co c #bccaf6",
"aD c #becaf5",
"a4 c #becbf5",
"dl c #bfa21f",
"ai c #bfc9ea",
"#v c #bfcbf0",
"#. c #bfcdfb",
"cd c #c2a117",
".F c #c2cdf6",
"dI c #c3a621",
"#Z c #c3d0ec",
"#B c #c4d2f7",
"#S c #c5cff6",
".E c #c5d2f6",
".t c #c6d2f7",
".r c #c6d2f9",
"aE c #c7d4f7",
"cT c #c8a819",
"am c #c8d4f9",
"au c #c9ab24",
"a5 c #c9d5f7",
".2 c #cad5f8",
".S c #cad6f7",
"ch c #cbae2a",
"bw c #cdae20",
"#u c #cdd2eb",
"#C c #cdd8f9",
"#n c #cdd8fb",
".T c #cdd9f8",
"cb c #cfdaf8",
".5 c #cfdbf8",
"du c #d0ac16",
"aG c #d0d6ed",
"#5 c #d2b324",
".N c #d2dbf8",
"#A c #d2ddf8",
".q c #d3dcf9",
"dh c #d4b528",
".D c #d4dff9",
"#8 c #d5b523",
".G c #d5def9",
"aF c #d5dff9",
"#w c #d6ddf8",
"bq c #d6ddf9",
"#e c #d6dff9",
"#W c #d7dffa",
".R c #d7e1f8",
"cn c #d9e0f9",
"ds c #dab91f",
"#t c #dae2f7",
"dz c #dbba20",
".u c #dbe1f8",
"a6 c #dce4f9",
"as c #debc20",
".4 c #dee5fa",
"#Y c #e0e6fb",
"#i c #e0e7fb",
"cJ c #e1be1a",
"dU c #e1be1e",
"cm c #e2e6f6",
"#m c #e2e7fa",
"bv c #e3bf18",
"#X c #e3e8fb",
".z c #e4e6f2",
"#h c #e4e9fc",
"dm c #e5c11c",
"dc c #e5c21f",
"bQ c #e6c21d",
".6 c #e6ebfb",
"dg c #e7c21a",
"b6 c #e7c31c",
"at c #e8c31b",
"c6 c #e8c41d",
"b0 c #e8ecfb",
"#z c #e8edfc",
"#6 c #e9c41b",
"dJ c #e9c41c",
"#7 c #eac51a",
"br c #eaeefb",
"bX c #eef0fa",
".U c #eef0fd",
"ca c #f0f1fc",
".o c #f0f5f9",
".X c #f0f5fd",
"bK c #f1f2fc",
".H c #f2f3fd",
"#l c #f2f4fe",
".I c #f2f5fc",
"a7 c #f3f4fd",
".O c #f4f5ff",
".9 c #f4f6fd",
".P c #f4f6fe",
"bZ c #f5f7fd",
"bL c #f5f8fd",
"a8 c #f5f9fc",
"#y c #f5f9fd",
".Q c #f5fbfd",
"bO c #f6f6fd",
".p c #f6f9fd",
"#k c #f6fafd",
".A c #f7f7fd",
"bs c #f7f8fd",
".V c #f7f9fd",
".7 c #f7fafd",
"bt c #f7fcfd",
"#x c #f7fdfe",
".C c #f8f8fd",
"#f c #f8f9fd",
".8 c #f8fafe",
".W c #f8fcfe",
".B c #f9f8fd",
"bM c #f9fbfe",
"bN c #f9fcfe",
"#j c #f9fdfe",
".3 c #fafbfe",
"bY c #fafcfd",
"#g c #fafcff",
"QtQtQtQtQtQtQtQtQt.#.a.bQtQtQtQtQtQtQtQtQtQtQtQtQtQtQtQtQtQtQtQt",
"QtQtQtQtQtQt.c.d.e.f.g.h.i.j.kQtQtQtQtQtQtQtQtQtQtQtQtQtQtQtQtQt",
"QtQtQtQt.l.m.n.o.p.q.r.s.t.u.v.wQtQtQtQtQtQtQtQtQtQtQtQtQtQtQtQt",
"QtQtQt.x.y.z.A.B.C.D.E.F.G.H.I.J.KQtQtQtQtQtQtQtQtQtQtQtQtQtQtQt",
"QtQt.L.M.N.O.P.Q.Q.R.S.T.U.V.W.X.YQtQtQtQtQtQtQtQtQtQtQtQtQtQtQt",
"QtQt.Z.0.1.2.O.V.3.4.5.6.7.3.8.9#.##QtQtQtQtQtQtQtQtQtQtQtQtQtQt",
"Qt#a#b.1#c#d#e#f#g#h#i.p#j#k#l#m#n#oQtQtQtQtQtQtQtQtQtQtQtQtQtQt",
"Qt#p#q#c#d#r#s#t#u#v#w#x#y#z#A#B#C#D#E#F#G#H#I#J#K#LQtQtQtQtQtQt",
"#M#N#O#P#Q#R#S#T#U#V#W#X#Y#Z#0#1#2#3#4#5#6#7#7#6#8#9a.a#aaabacQt",
"adaeafagah.taiajakalam#Canaoapaqaras#7#7#7#7#7#7atauavawaxayazQt",
"aAaBaCaDaEaFaGaHaIaJaKaLaMaNaOaPaQaRaSaTaUaVaWaXaYaZa0a1a1a1a2Qt",
"aAa3a4a5a6a7a8a9b.b#babbbcbdbebfbgbhbibjbkblbma1a1a1a1a1a1a1bnQt",
"bobpbqbrbs.Wbtbubv#7atbwbxbybzbAbBbCbDbEbFbGa1a1a1a1a1a1a1a1bHQt",
"bIbJbKbLbMbNbObPbv#7#7#7#7#7#7bQbRbSbTbUbVbGa1a1a1a1a1a1a1a1bHQt",
"QtbWbXbYbMbZb0b1bv#7b2b3b4b5b6#7b7bSb8b9bVbGa1a1a1a1a1a1a1a1bHQt",
"Qtc.c##kbZcacbccbv#7cdcecfcgch#7b7bSb8cicjbGa1a1a1a1a1a1a1a1bHQt",
"QtQtckclcmcncocpbv#7#7#7#7#7#7#7cqcrcsctcucva1a1a1a1a1a1a1a1bHQt",
"QtQtQt.xcwcxcyczbv#7#7#7#7#7#7#7cAcBcBcBcBcCa1a1a1a1a1a1a1a1bHQt",
"QtQtQtQtQtcDcEcFbv#7#7#7#7#7#7#7cAcBcBcBcBcGa1a1a1a1a1a1a1a1cHQt",
"QtQtQtQtQtQtQtcIcJ#7#7#7#7#7#7#7cKcLcBcLcMcNa1a1a1a1a1a1a1a1cOQt",
"QtQtQtQtQtQtQtcPcQcRcScT#7#7#7#7cUcVcWcXcYcZa1a1a1a1a1a1a1a1c0Qt",
"QtQtQtQtQtQtQtQtQtQtc1c2c3c4c5c6c7c8c9d.d#daa1a1a1a1a1a1a1a1c0Qt",
"QtQtQtQtQtQtQtQtQtQtQtQtdbdcdddedf#7#7dgdhdia1a1a1a1a1a1a1a1c0Qt",
"QtQtQtQtQtQtQtQtQtQtQtQtdb#7#7djdkdldm#7#7dna1a1a1a1a1a1a1a1c0Qt",
"QtQtQtQtQtQtQtQtQtQtQtQtdb#7#7dodpdqdrds#7dta1a1a1a1a1a1a1a1c0Qt",
"QtQtQtQtQtQtQtQtQtQtQtQtdb#7#7#7#7#7dudg#7dva1a1a1a1a1a1a1a1c0Qt",
"QtQtQtQtQtQtQtQtQtQtQtQtdb#7#7#7#7#7#7#7#7dwa1a1a1a1a1a1a1a1c0Qt",
"QtQtQtQtQtQtQtQtQtQtQtQtdb#7#7#7#7#7#7#7#7dwa1a1a1a1a1a1a1a1dxQt",
"QtQtQtQtQtQtQtQtQtQtQtQtdydz#7#7#7#7#7#7#7dwa1a1a1a1a1dAdBdCdDQt",
"QtQtQtQtQtQtQtQtQtQtQtQtdEdFdGdHdIdJ#7#7#7dwa1a1dKdLdMdNdOQtQtQt",
"QtQtQtQtQtQtQtQtQtQtQtQtQtQtQtdPdQdRdSdTdUdvdVdWdXdYQtQtQtQtQtQt",
"QtQtQtQtQtQtQtQtQtQtQtQtQtQtQtQtQtQtQtdZd0d1d2d3QtQtQtQtQtQtQtQt"};
